<svg xmlns="http://www.w3.org/2000/svg" width="184.61" height="35" viewBox="0 0 184.61 35"><rect class="svg__rect" x="0" y="0" width="127.14" height="35" fill="#424242"/><rect class="svg__rect" x="125.14" y="0" width="59.47" height="35" fill="#3BC4F3"/><path class="svg__text" d="M13.95 18.19L13.95 18.19L13.95 17.39Q13.95 16.19 14.38 15.27Q14.80 14.35 15.60 13.85Q16.40 13.35 17.45 13.35L17.45 13.35Q18.86 13.35 19.73 14.12Q20.59 14.89 20.73 16.29L20.73 16.29L19.25 16.29Q19.14 15.37 18.71 14.96Q18.28 14.55 17.45 14.55L17.45 14.55Q16.48 14.55 15.97 15.26Q15.45 15.96 15.44 17.33L15.44 17.33L15.44 18.09Q15.44 19.47 15.93 20.20Q16.43 20.92 17.38 20.92L17.38 20.92Q18.25 20.92 18.69 20.53Q19.13 20.14 19.25 19.22L19.25 19.22L20.73 19.22Q20.60 20.59 19.72 21.35Q18.84 22.12 17.38 22.12L17.38 22.12Q16.36 22.12 15.59 21.63Q14.81 21.15 14.39 20.26Q13.97 19.37 13.95 18.19ZM24.90 19.16L24.90 19.16L24.90 13.47L26.38 13.47L26.38 19.18Q26.38 20.03 26.81 20.48Q27.25 20.93 28.09 20.93L28.09 20.93Q29.80 20.93 29.80 19.13L29.80 19.13L29.80 13.47L31.28 13.47L31.28 19.17Q31.28 20.53 30.41 21.32Q29.54 22.12 28.09 22.12L28.09 22.12Q26.63 22.12 25.77 21.33Q24.90 20.55 24.90 19.16ZM37.33 22L35.85 22L35.85 13.47L38.85 13.47Q40.33 13.47 41.13 14.13Q41.93 14.79 41.93 16.05L41.93 16.05Q41.93 16.90 41.52 17.48Q41.11 18.06 40.37 18.37L40.37 18.37L42.28 21.92L42.28 22L40.70 22L38.98 18.71L37.33 18.71L37.33 22ZM37.33 14.66L37.33 17.52L38.86 17.52Q39.61 17.52 40.03 17.15Q40.45 16.77 40.45 16.11L40.45 16.11Q40.45 15.43 40.06 15.05Q39.67 14.68 38.90 14.66L38.90 14.66L37.33 14.66ZM47.81 22L46.33 22L46.33 13.47L49.33 13.47Q50.80 13.47 51.61 14.13Q52.41 14.79 52.41 16.05L52.41 16.05Q52.41 16.90 52.00 17.48Q51.58 18.06 50.84 18.37L50.84 18.37L52.76 21.92L52.76 22L51.17 22L49.46 18.71L47.81 18.71L47.81 22ZM47.81 14.66L47.81 17.52L49.33 17.52Q50.08 17.52 50.50 17.15Q50.93 16.77 50.93 16.11L50.93 16.11Q50.93 15.43 50.54 15.05Q50.15 14.68 49.37 14.66L49.37 14.66L47.81 14.66ZM62.38 22L56.80 22L56.80 13.47L62.34 13.47L62.34 14.66L58.29 14.66L58.29 17.02L61.79 17.02L61.79 18.19L58.29 18.19L58.29 20.82L62.38 20.82L62.38 22ZM68.26 14.66L65.62 14.66L65.62 13.47L72.39 13.47L72.39 14.66L69.73 14.66L69.73 22L68.26 22L68.26 14.66ZM77.63 22L76.14 22L76.14 13.47L77.63 13.47L81.44 19.54L81.44 13.47L82.91 13.47L82.91 22L81.43 22L77.63 15.95L77.63 22ZM89.33 14.66L86.70 14.66L86.70 13.47L93.47 13.47L93.47 14.66L90.81 14.66L90.81 22L89.33 22L89.33 14.66ZM102.58 22L97.22 22L97.22 13.47L98.70 13.47L98.70 20.82L102.58 20.82L102.58 22ZM108.74 18.86L105.88 13.47L107.52 13.47L109.48 17.51L111.45 13.47L113.09 13.47L110.23 18.86L110.23 22L108.74 22L108.74 18.86Z" fill="#FFFFFF"/><path class="svg__text" d="M141.41 22L138.68 13.60L141.13 13.60L142.82 18.96L144.60 13.60L146.78 13.60L148.47 19.01L150.24 13.60L152.51 13.60L149.78 22L147.24 22L145.63 16.89L143.95 22L141.41 22ZM159.40 22L157.02 22L157.02 13.60L159.40 13.60L159.40 22ZM166.95 22L164.57 22L164.57 13.60L168.41 13.60Q169.55 13.60 170.39 13.98Q171.23 14.35 171.69 15.06Q172.15 15.76 172.15 16.71L172.15 16.71Q172.15 17.66 171.69 18.35Q171.23 19.05 170.39 19.42Q169.55 19.80 168.41 19.80L168.41 19.80L166.95 19.80L166.95 22ZM166.95 15.47L166.95 17.93L168.27 17.93Q169.00 17.93 169.37 17.61Q169.74 17.29 169.74 16.71L169.74 16.71Q169.74 16.12 169.37 15.80Q169.00 15.47 168.27 15.47L168.27 15.47L166.95 15.47Z" fill="#FFFFFF" x="138.14"/></svg>