<svg xmlns="http://www.w3.org/2000/svg" width="201.6" height="35" viewBox="0 0 201.6 35"><rect class="svg__rect" x="0" y="0" width="113.25" height="35" fill="#424242"/><rect class="svg__rect" x="111.25" y="0" width="90.35" height="35" fill="#8FC965"/><path class="svg__text" d="M16.67 22L14.22 22L14.22 13.47L16.74 13.47Q17.87 13.47 18.74 13.97Q19.62 14.48 20.10 15.40Q20.58 16.33 20.58 17.52L20.58 17.52L20.58 17.95Q20.58 19.16 20.10 20.08Q19.61 21.00 18.72 21.50Q17.83 22 16.67 22L16.67 22ZM15.70 14.66L15.70 20.82L16.67 20.82Q17.83 20.82 18.46 20.09Q19.08 19.36 19.09 17.99L19.09 17.99L19.09 17.52Q19.09 16.13 18.49 15.40Q17.89 14.66 16.74 14.66L16.74 14.66L15.70 14.66ZM24.78 18.00L24.78 18.00L24.78 17.52Q24.78 16.28 25.22 15.32Q25.66 14.37 26.47 13.86Q27.27 13.35 28.31 13.35Q29.36 13.35 30.16 13.85Q30.97 14.35 31.41 15.29Q31.85 16.23 31.85 17.48L31.85 17.48L31.85 17.96Q31.85 19.21 31.42 20.16Q30.99 21.10 30.18 21.61Q29.38 22.12 28.33 22.12L28.33 22.12Q27.29 22.12 26.48 21.61Q25.67 21.10 25.22 20.17Q24.78 19.23 24.78 18.00ZM26.26 17.46L26.26 17.96Q26.26 19.36 26.81 20.13Q27.35 20.90 28.33 20.90L28.33 20.90Q29.31 20.90 29.84 20.15Q30.37 19.40 30.37 17.96L30.37 17.96L30.37 17.51Q30.37 16.09 29.84 15.34Q29.30 14.58 28.31 14.58L28.31 14.58Q27.35 14.58 26.81 15.33Q26.27 16.09 26.26 17.46L26.26 17.46ZM37.70 22L35.73 13.47L37.20 13.47L38.53 19.88L40.16 13.47L41.40 13.47L43.01 19.89L44.32 13.47L45.79 13.47L43.82 22L42.41 22L40.78 15.77L39.13 22L37.70 22ZM51.35 22L49.87 22L49.87 13.47L51.35 13.47L55.16 19.54L55.16 13.47L56.63 13.47L56.63 22L55.15 22L51.35 15.95L51.35 22ZM66.73 22L61.37 22L61.37 13.47L62.86 13.47L62.86 20.82L66.73 20.82L66.73 22ZM70.58 18.00L70.58 18.00L70.58 17.52Q70.58 16.28 71.03 15.32Q71.47 14.37 72.27 13.86Q73.08 13.35 74.12 13.35Q75.17 13.35 75.97 13.85Q76.78 14.35 77.22 15.29Q77.66 16.23 77.66 17.48L77.66 17.48L77.66 17.96Q77.66 19.21 77.23 20.16Q76.80 21.10 75.99 21.61Q75.18 22.12 74.14 22.12L74.14 22.12Q73.10 22.12 72.29 21.61Q71.47 21.10 71.03 20.17Q70.59 19.23 70.58 18.00ZM72.07 17.46L72.07 17.96Q72.07 19.36 72.61 20.13Q73.16 20.90 74.14 20.90L74.14 20.90Q75.12 20.90 75.65 20.15Q76.18 19.40 76.18 17.96L76.18 17.96L76.18 17.51Q76.18 16.09 75.64 15.34Q75.11 14.58 74.12 14.58L74.12 14.58Q73.16 14.58 72.62 15.33Q72.08 16.09 72.07 17.46L72.07 17.46ZM82.91 22L81.37 22L84.59 13.47L85.92 13.47L89.15 22L87.60 22L86.90 20.01L83.60 20.01L82.91 22ZM85.25 15.28L84.01 18.82L86.49 18.82L85.25 15.28ZM95.56 22L93.10 22L93.10 13.47L95.62 13.47Q96.75 13.47 97.63 13.97Q98.50 14.48 98.98 15.40Q99.47 16.33 99.47 17.52L99.47 17.52L99.47 17.95Q99.47 19.16 98.98 20.08Q98.50 21.00 97.60 21.50Q96.71 22 95.56 22L95.56 22ZM94.58 14.66L94.58 20.82L95.55 20.82Q96.72 20.82 97.34 20.09Q97.97 19.36 97.98 17.99L97.98 17.99L97.98 17.52Q97.98 16.13 97.37 15.40Q96.77 14.66 95.62 14.66L95.62 14.66L94.58 14.66Z" fill="#FFFFFF"/><path class="svg__text" d="M131.82 22L125.44 22L125.44 13.60L127.82 13.60L127.82 20.11L131.82 20.11L131.82 22ZM137.66 22L135.23 22L138.94 13.60L141.29 13.60L145.00 22L142.54 22L141.87 20.37L138.32 20.37L137.66 22ZM140.10 15.93L139.01 18.61L141.18 18.61L140.10 15.93ZM150.95 15.48L148.37 15.48L148.37 13.60L155.89 13.60L155.89 15.48L153.32 15.48L153.32 22L150.95 22L150.95 15.48ZM167.00 22L160.26 22L160.26 13.60L166.85 13.60L166.85 15.44L162.62 15.44L162.62 16.85L166.35 16.85L166.35 18.63L162.62 18.63L162.62 20.17L167.00 20.17L167.00 22ZM171.22 21.24L171.22 21.24L172.00 19.49Q172.56 19.86 173.31 20.09Q174.05 20.32 174.77 20.32L174.77 20.32Q176.14 20.32 176.14 19.64L176.14 19.64Q176.14 19.28 175.76 19.11Q175.37 18.93 174.50 18.74L174.50 18.74Q173.55 18.53 172.91 18.30Q172.28 18.06 171.82 17.55Q171.37 17.03 171.37 16.16L171.37 16.16Q171.37 15.39 171.79 14.77Q172.21 14.15 173.04 13.79Q173.88 13.43 175.08 13.43L175.08 13.43Q175.91 13.43 176.72 13.62Q177.52 13.80 178.14 14.17L178.14 14.17L177.40 15.93Q176.20 15.28 175.07 15.28L175.07 15.28Q174.36 15.28 174.04 15.49Q173.72 15.70 173.72 16.04L173.72 16.04Q173.72 16.37 174.10 16.54Q174.49 16.71 175.34 16.89L175.34 16.89Q176.30 17.10 176.93 17.33Q177.56 17.56 178.02 18.07Q178.48 18.58 178.48 19.46L178.48 19.46Q178.48 20.21 178.06 20.83Q177.64 21.44 176.80 21.80Q175.96 22.17 174.76 22.17L174.76 22.17Q173.74 22.17 172.78 21.92Q171.82 21.67 171.22 21.24ZM184.85 15.48L182.27 15.48L182.27 13.60L189.79 13.60L189.79 15.48L187.22 15.48L187.22 22L184.85 22L184.85 15.48Z" fill="#FFFFFF" x="124.25"/></svg>