<svg xmlns="http://www.w3.org/2000/svg" width="191.82" height="35" viewBox="0 0 191.82 35"><rect class="svg__rect" x="0" y="0" width="115.31" height="35" fill="#424242"/><rect class="svg__rect" x="113.31" y="0" width="78.50999999999999" height="35" fill="#905BCD"/><path class="svg__text" d="M15.69 22L14.22 22L14.22 13.47L16.14 13.47L18.60 20.01L21.06 13.47L22.97 13.47L22.97 22L21.49 22L21.49 19.19L21.64 15.43L19.12 22L18.06 22L15.55 15.43L15.69 19.19L15.69 22ZM28.49 22L26.95 22L30.17 13.47L31.50 13.47L34.73 22L33.18 22L32.49 20.01L29.18 20.01L28.49 22ZM30.83 15.28L29.60 18.82L32.07 18.82L30.83 15.28ZM41.14 22L38.69 22L38.69 13.47L41.21 13.47Q42.34 13.47 43.21 13.97Q44.09 14.48 44.57 15.40Q45.05 16.33 45.05 17.52L45.05 17.52L45.05 17.95Q45.05 19.16 44.57 20.08Q44.08 21.00 43.19 21.50Q42.30 22 41.14 22L41.14 22ZM40.17 14.66L40.17 20.82L41.14 20.82Q42.30 20.82 42.93 20.09Q43.55 19.36 43.56 17.99L43.56 17.99L43.56 17.52Q43.56 16.13 42.96 15.40Q42.35 14.66 41.21 14.66L41.21 14.66L40.17 14.66ZM55.09 22L49.51 22L49.51 13.47L55.05 13.47L55.05 14.66L51.00 14.66L51.00 17.02L54.50 17.02L54.50 18.19L51.00 18.19L51.00 20.82L55.09 20.82L55.09 22ZM66.65 22L64.68 13.47L66.15 13.47L67.47 19.88L69.10 13.47L70.34 13.47L71.96 19.89L73.27 13.47L74.74 13.47L72.77 22L71.35 22L69.73 15.77L68.07 22L66.65 22ZM80.38 22L78.90 22L78.90 13.47L80.38 13.47L80.38 22ZM86.87 14.66L84.23 14.66L84.23 13.47L91.00 13.47L91.00 14.66L88.34 14.66L88.34 22L86.87 22L86.87 14.66ZM96.24 22L94.75 22L94.75 13.47L96.24 13.47L96.24 17.02L100.05 17.02L100.05 13.47L101.53 13.47L101.53 22L100.05 22L100.05 18.21L96.24 18.21L96.24 22Z" fill="#FFFFFF"/><path class="svg__text" d="M127.43 18.26L127.43 18.26L127.43 13.60L129.81 13.60L129.81 18.19Q129.81 20.20 131.40 20.20L131.40 20.20Q132.98 20.20 132.98 18.19L132.98 18.19L132.98 13.60L135.33 13.60L135.33 18.26Q135.33 20.13 134.29 21.15Q133.25 22.17 131.38 22.17L131.38 22.17Q129.50 22.17 128.46 21.15Q127.43 20.13 127.43 18.26ZM142.74 22L140.41 22L140.41 13.60L142.37 13.60L146.08 18.07L146.08 13.60L148.40 13.60L148.40 22L146.45 22L142.74 17.52L142.74 22ZM155.95 22L153.57 22L153.57 13.60L155.95 13.60L155.95 22ZM162.91 15.48L160.33 15.48L160.33 13.60L167.85 13.60L167.85 15.48L165.28 15.48L165.28 22L162.91 22L162.91 15.48ZM174.35 18.95L171.14 13.60L173.65 13.60L175.64 16.94L177.64 13.60L179.94 13.60L176.72 18.99L176.72 22L174.35 22L174.35 18.95Z" fill="#FFFFFF" x="126.31"/></svg>